<?xml version="1.0" encoding="UTF-8" standalone="no"?>
<svg width="15px" height="16px" viewBox="0 0 15 16" version="1.1" xmlns="http://www.w3.org/2000/svg" xmlns:xlink="http://www.w3.org/1999/xlink">
    <!-- Generator: Sketch 3.8.2 (29753) - http://www.bohemiancoding.com/sketch -->
    <title>Shape</title>
    <desc>Created with Sketch.</desc>
    <defs></defs>
    <g id="Page-1" stroke="none" stroke-width="1" fill="none" fill-rule="evenodd">
        <g id="tab-3" transform="translate(-337.000000, -422.000000)" fill="#888888">
            <g id="Group" transform="translate(150.000000, 364.000000)">
                <g id="Group-5" transform="translate(17.000000, 0.000000)">
                    <g id="Group-4" transform="translate(0.000000, 57.000000)">
                        <g id="Group-2" transform="translate(170.000000, 0.000000)">
                            <path d="M11.0313567,9.7911 C11.5928124,8.87862775 11.9300747,7.74752191 11.9300747,6.5174468 C11.9300747,3.50336309 9.9309937,1.06011051 7.46497475,1.06011051 C4.9989013,1.06011051 2.99987482,3.50336307 2.99987482,6.5174468 C2.99987482,7.74754007 3.33708256,8.87864592 3.89859276,9.7911 C1.59093917,10.8863392 0.0230930753,13.0064654 0.0230930753,15.4475922 L0.0230930753,15.9437104 C0.0230930753,16.4917206 0.467428178,16.9360012 1.01532942,16.9360012 L13.9145474,16.9360012 C14.4625213,16.9360012 14.9067837,16.4917206 14.9067837,15.9437104 L14.9067837,15.4475922 C14.9068019,13.0062111 13.3389195,10.8863392 11.0313567,9.7911 L11.0313567,9.7911 Z M7.46497475,2.54841055 C9.07837177,2.54841055 10.4416656,4.36599641 10.4416656,6.51742864 C10.4416656,8.66877003 9.07837177,10.4863559 7.46497475,10.4863559 C5.85154139,10.4863559 4.48824751,8.66877003 4.48824751,6.51742864 C4.48824751,4.3659964 5.85154139,2.54841055 7.46497475,2.54841055 L7.46497475,2.54841055 Z M1.51150211,15.4475922 C1.51150211,13.4786362 2.89569091,11.7766447 4.89520795,10.9759512 C5.62242399,11.6031987 6.50760566,11.9748013 7.46497475,11.9748013 C8.42234384,11.9748013 9.3075255,11.6031987 10.034687,10.9759512 C12.0342586,11.7766447 13.4184292,13.4786362 13.4184292,15.4475922 L1.51150211,15.4475922 L1.51150211,15.4475922 Z" id="Shape"></path>
                        </g>
                    </g>
                </g>
            </g>
        </g>
    </g>
</svg>