<?xml version="1.0" encoding="UTF-8" standalone="no"?>
<svg width="16px" height="14px" viewBox="0 0 16 14" version="1.1" xmlns="http://www.w3.org/2000/svg" xmlns:xlink="http://www.w3.org/1999/xlink">
    <!-- Generator: Sketch 3.8.2 (29753) - http://www.bohemiancoding.com/sketch -->
    <title>chart</title>
    <desc>Created with Sketch.</desc>
    <defs></defs>
    <g id="Page-1" stroke="none" stroke-width="1" fill="none" fill-rule="evenodd">
        <g id="tab-2" transform="translate(-315.000000, -307.000000)" fill="#337AB7">
            <path d="M330.165336,320.874891 L315.745858,320.874891 C315.333501,320.874891 315,320.529766 315,320.103985 L315,307.770661 C315,307.344918 315.333501,307 315.745858,307 C316.157379,307 316.491716,307.344899 316.491716,307.770661 L316.491716,317.534594 L316.491716,319.333136 L330.165354,319.333136 C330.576875,319.333136 330.91123,319.678223 330.91123,320.103985 C330.911194,320.529766 330.576857,320.874891 330.165336,320.874891 M328.42468,318.562306 L326.932964,318.562306 C326.521443,318.562306 326.187088,318.217388 326.187088,317.791663 L326.187088,312.395832 C326.187088,311.969844 326.521425,311.624982 326.932964,311.624982 L328.42468,311.624982 C328.837055,311.624982 329.170574,311.9699 329.170574,312.395832 L329.170574,317.791663 C329.170556,318.217388 328.837073,318.562306 328.42468,318.562306 M324.198418,318.562306 L322.706702,318.562306 C322.294763,318.562306 321.960826,318.217388 321.960826,317.791663 L321.960826,309.312397 C321.960826,308.886635 322.294763,308.541529 322.706702,308.541529 L324.198418,308.541529 C324.610339,308.541529 324.944276,308.886635 324.944276,309.312397 L324.944276,317.791644 C324.944276,318.217388 324.610357,318.562306 324.198418,318.562306 M319.972138,318.562306 L318.480422,318.562306 C318.068065,318.562306 317.734564,318.217388 317.734564,317.791663 L317.734564,316.249908 C317.734564,315.824184 318.068065,315.479059 318.480422,315.479059 L319.972138,315.479059 C320.384077,315.479059 320.718014,315.824184 320.718014,316.249908 L320.718014,317.791663 C320.717996,318.217388 320.384077,318.562306 319.972138,318.562306" id="chart"></path>
        </g>
    </g>
</svg>