<?xml version="1.0" encoding="UTF-8" standalone="no"?>
<svg width="15px" height="16px" viewBox="0 0 15 16" version="1.1" xmlns="http://www.w3.org/2000/svg" xmlns:xlink="http://www.w3.org/1999/xlink">
    <!-- Generator: Sketch 3.8.2 (29753) - http://www.bohemiancoding.com/sketch -->
    <title>Shape</title>
    <desc>Created with Sketch.</desc>
    <defs></defs>
    <g id="Page-1" stroke="none" stroke-width="1" fill="none" fill-rule="evenodd">
        <g id="tab-3" transform="translate(-168.000000, -425.000000)" fill="#888888">
            <g id="Group" transform="translate(150.000000, 366.000000)">
                <path d="M30.9430636,61.944329 C28.160278,59.1519976 23.6475078,59.1519976 20.8640988,61.944329 C18.0808145,64.7366604 18.0808145,69.2632146 20.8640988,72.055671 C23.6475078,74.8481274 28.1600287,74.8481274 30.9430636,72.055671 C30.9555302,72.0439212 30.9652541,72.0310464 30.976848,72.0185466 L31.6131413,72.6570366 C28.4987451,75.7806128 23.4499128,75.7806128 20.3355166,72.6570366 C17.2214945,69.5327104 17.2214945,64.4672896 20.3355166,61.3429634 C23.4499128,58.2190122 28.4984958,58.2190122 31.6131413,61.3429634 L30.976848,61.9812034 C30.9652541,61.9693286 30.9555302,61.9564538 30.9430636,61.944329 L30.9430636,61.944329 Z M32.9519252,67.00025 L29.1932572,70.7996906 L29.1932572,68.3822284 L22.5852321,68.3822284 L22.5852321,65.6952704 L29.1931325,65.6952704 L29.1931325,63.2006843 L32.9519252,67.00025 L32.9519252,67.00025 Z" id="Shape"></path>
            </g>
        </g>
    </g>
</svg>