<?xml version="1.0" encoding="UTF-8" standalone="no"?>
<svg width="16px" height="16px" viewBox="0 0 16 16" version="1.1" xmlns="http://www.w3.org/2000/svg" xmlns:xlink="http://www.w3.org/1999/xlink">
    <!-- Generator: Sketch 3.8.2 (29753) - http://www.bohemiancoding.com/sketch -->
    <title>link</title>
    <desc>Created with Sketch.</desc>
    <defs></defs>
    <g id="Page-1" stroke="none" stroke-width="1" fill="none" fill-rule="evenodd">
        <g id="tab-2" transform="translate(-432.000000, -306.000000)" fill="#337AB7">
            <g id="link" transform="translate(432.000000, 306.000000)">
                <path d="M13.5,11 C12.8,11 12.2,11.3 11.7,11.8 L5,8.4 L5,8 L5,7.6 L11.7,4.2 C12.2,4.7 12.8,5 13.5,5 C14.9,5 16,3.9 16,2.5 C16,1.1 14.9,0 13.5,0 C12.1,0 11,1.1 11,2.5 L11,2.9 L4.3,6.3 C3.8,5.8 3.2,5.5 2.5,5.5 C1.1,5.5 0,6.6 0,8 C0,9.4 1.1,10.5 2.5,10.5 C3.2,10.5 3.8,10.2 4.3,9.7 L11,13.1 L11,13.5 C11,14.9 12.1,16 13.5,16 C14.9,16 16,14.9 16,13.5 C16,12.1 14.9,11 13.5,11 L13.5,11 Z" id="Shape"></path>
            </g>
        </g>
    </g>
</svg>